<svg xmlns="http://www.w3.org/2000/svg" viewBox="0 0 733 250">
  <defs>
    <path id="a" d="M100.382 46.356H1632.7v756.215H100.382Z"/>
  </defs>
  <rect style="fill:#ff9800;fill-opacity:1;stroke-width:0.780325" width="347.91901" height="235.442" x="380.89001" y="6.4130001" rx="14.666" ry="16.607"/>
  <g aria-label="Paw hub" transform="translate(-103.532 -43.869)" style="font-size:192px;white-space:pre;shape-inside:url(#a)">
    <path d="M167.583 95.765q12.672 0 22.272 5.184 9.6 5.184 14.784 14.784 5.376 9.408 5.376 21.696 0 12.096-5.568 21.312-5.376 9.216-15.36 14.4-9.792 4.992-22.656 4.992h-27.264q-.96 0-.96.96v48.96q0 .96-.768 1.728-.576.576-1.536.576h-22.464q-.96 0-1.728-.576-.576-.768-.576-1.728V98.07q0-.96.576-1.536.768-.768 1.728-.768zm-4.032 60.672q8.832 0 14.208-4.992 5.376-5.184 5.376-13.44 0-8.448-5.376-13.632-5.376-5.184-14.208-5.184h-24.384q-.96 0-.96.96v35.328q0 .96.96.96zm99.455-26.304q12.48 0 22.272 4.416 9.792 4.224 15.168 11.712 5.568 7.488 5.568 16.704v65.088q0 .96-.768 1.728-.576.576-1.536.576h-22.464q-.96 0-1.728-.576-.576-.768-.576-1.728v-6.336q0-.576-.384-.768-.384-.192-.768.384-8.064 10.56-25.92 10.56-14.976 0-24.192-7.296t-9.216-21.504q0-14.784 10.368-22.848 10.368-8.256 29.568-8.256h19.584q.96 0 .96-.96v-4.224q0-6.336-3.84-9.792-3.84-3.648-11.52-3.648-5.952 0-9.984 2.112-3.84 2.112-4.992 5.952-.576 2.112-2.496 1.92l-23.232-3.072q-2.304-.384-2.112-1.728.768-8.064 6.336-14.592 5.76-6.528 14.976-10.176 9.408-3.648 20.928-3.648zm-3.84 81.6q8.256 0 14.016-4.416t5.76-11.328v-6.912q0-.96-.96-.96h-13.824q-8.64 0-13.632 3.264-4.8 3.264-4.8 9.216 0 5.184 3.648 8.256 3.648 2.88 9.792 2.88zm87.744 18.624q-2.112 0-2.688-1.92l-27.648-94.272-.192-.768q0-1.92 2.112-1.92h23.232q2.112 0 2.688 1.92l13.824 57.984q.192.576.576.576.384 0 .576-.576l14.4-57.984q.576-1.92 2.688-1.92h20.16q2.112 0 2.688 1.92l15.168 58.176q.192.576.576.576.384 0 .576-.576l14.976-58.176q.576-1.92 2.688-1.92l23.04.384q1.152 0 1.536.768.576.576.384 1.728l-28.032 94.08q-.576 1.92-2.496 1.92H404.51q-2.112 0-2.688-1.92l-14.784-51.456q-.192-.576-.576-.576-.384 0-.576.576l-13.056 51.456q-.576 1.92-2.688 1.92z" style="font-weight:700;font-family:Barlow;-inkscape-font-specification:'Barlow Bold';fill:#ffffff"/>
    <path d="M560.03 130.71q15.551 0 24.767 9.215 9.408 9.216 9.408 25.152v62.976q0 .96-.768 1.728-.576.576-1.536.576h-17.664q-.96 0-1.728-.576-.576-.768-.576-1.728v-58.368q0-8.832-4.992-14.208-4.992-5.568-13.248-5.568t-13.44 5.376q-4.992 5.376-4.992 14.208v58.56q0 .96-.768 1.728-.576.576-1.536.576h-17.664q-.96 0-1.728-.576-.576-.768-.576-1.728V98.261q0-.96.576-1.536.768-.768 1.728-.768h17.664q.96 0 1.536.768.768.576.768 1.536v42.432q0 .576.384.768.384.192.576-.384 7.872-10.368 23.808-10.368zm115.391 3.84q0-.96.576-1.537.768-.768 1.728-.768h17.472q.96 0 1.536.768.768.576.768 1.536v93.504q0 .96-.768 1.728-.576.576-1.536.576h-17.472q-.96 0-1.728-.576-.576-.768-.576-1.728v-6.144q0-.576-.384-.768-.384-.192-.768.384-7.872 10.176-23.616 10.176-14.592 0-24.576-8.448-9.792-8.448-9.792-24V134.55q0-.96.576-1.536.768-.768 1.728-.768h17.664q.96 0 1.536.768.768.576.768 1.536v58.368q0 9.024 4.608 14.4 4.8 5.376 13.248 5.376 8.64 0 13.824-5.376 5.184-5.376 5.184-14.4zm128.64 23.04q3.264 10.751 3.264 23.423 0 13.632-3.648 24-4.224 12.672-13.632 19.776-9.408 7.104-23.04 7.104-13.44 0-22.08-10.176-.384-.576-.768-.384-.384.192-.384.768v5.952q0 .96-.768 1.728-.576.576-1.536.576h-17.664q-.96 0-1.728-.576-.576-.768-.576-1.728V98.261q0-.96.576-1.536.768-.768 1.728-.768h17.664q.96 0 1.536.768.768.576.768 1.536v41.664q0 .576.384.768.384.192.768-.192 8.256-9.792 21.888-9.792 14.208 0 23.424 7.104 9.408 7.104 13.824 19.776zm-24.192 45.887q4.608-8.064 4.608-22.08 0-14.976-5.76-23.424-5.184-8.064-15.36-8.064-9.408 0-14.4 8.448-4.8 7.872-4.8 22.848 0 14.784 4.416 22.272 4.992 9.216 14.976 9.216 5.376 0 9.6-2.304 4.224-2.496 6.72-6.912z" style="font-weight:600;font-family:Barlow;-inkscape-font-specification:'Barlow Semi-Bold'"/>
  </g>
</svg>
